<svg xmlns="http://www.w3.org/2000/svg" xmlns:xlink="http://www.w3.org/1999/xlink" width="500" zoomAndPan="magnify" viewBox="0 0 375 374.999991" height="500" preserveAspectRatio="xMidYMid meet" version="1.0"><defs><filter x="0%" y="0%" width="100%" height="100%" id="ca14c7134c"><feColorMatrix values="0 0 0 0 1 0 0 0 0 1 0 0 0 0 1 0 0 0 1 0" color-interpolation-filters="sRGB"/></filter><mask id="1fc905e96e"><g filter="url(#ca14c7134c)"><rect x="-37.5" width="450" fill="#000000" y="-37.499999" height="449.999989" fill-opacity="0.02"/></g></mask><clipPath id="afe0a60453"><path d="M 0 0 L 375 0 L 375 375 L 0 375 Z M 0 0 " clip-rule="nonzero"/></clipPath><clipPath id="c62c02cff3"><rect x="0" width="375" y="0" height="375"/></clipPath><clipPath id="b55049ff59"><path d="M 36 94.015625 L 338.871094 94.015625 L 338.871094 197 L 36 197 Z M 36 94.015625 " clip-rule="nonzero"/></clipPath></defs><rect x="-37.5" width="450" fill="#ffffff" y="-37.499999" height="449.999989" fill-opacity="1"/><rect x="-37.5" width="450" fill="#b65322" y="-37.499999" height="449.999989" fill-opacity="1"/><g mask="url(#1fc905e96e)"><g transform="matrix(1, 0, 0, 1, 0, 0)"><g clip-path="url(#c62c02cff3)"><g clip-path="url(#afe0a60453)"><rect x="-82.5" width="540" fill="#ffffff" height="539.999987" y="-82.499998" fill-opacity="1"/></g></g></g></g><path stroke-linecap="butt" transform="matrix(0.211909, 0, 0, 0.211909, 84.576517, 103.48358)" fill-opacity="1" fill="#5b1e00" fill-rule="nonzero" stroke-linejoin="miter" d="M 378.707588 462.263291 C 366.65201 462.447627 353.545716 463.903882 339.388706 466.945427 C 226.169498 491.204052 185.781468 606.469391 113.005591 652.958945 C 40.229715 699.466933 -33.670612 677.106969 -44.693908 656.959037 C -55.735638 636.82954 -52.823128 614.54331 -34.629159 602.413997 C -4.822018 582.54257 -2.259747 624.644926 -2.259747 624.644926 C -2.259747 624.644926 3.878644 554.505055 -56.860088 588.238554 C -93.248026 608.46022 -92.326346 687.005815 -30.573766 731.762611 C 47.10545 788.058843 156.711671 775.708327 248.418861 758.048933 C 332.476104 741.88266 432.939257 691.042775 476.884974 640.811199 C 480.276757 636.940141 483.244568 632.903182 485.769972 628.75562 C 488.295376 632.903182 491.226319 636.940141 494.599669 640.811199 C 538.545386 691.042775 639.008538 741.88266 723.065782 758.048933 C 814.791405 775.708327 924.342325 788.058843 1002.003107 731.762611 C 1063.774121 687.005815 1064.677368 608.46022 1028.28943 588.238554 C 967.569131 554.505055 973.744389 624.644926 973.744389 624.644926 C 973.744389 624.644926 976.25136 582.54257 1006.058501 602.413997 C 1024.25247 614.54331 1027.22028 636.82954 1016.196984 656.959037 C 1005.173688 677.106969 931.273361 699.466933 858.479051 652.958945 C 785.703175 606.450957 745.278277 491.185619 632.059069 466.926993 C 551.946617 449.765306 506.305009 483.332903 485.714671 511.499453 C 468.755753 488.309976 434.874785 461.452212 378.707588 462.263291 Z M 378.707588 462.263291 " stroke="#000000" stroke-width="1.662" stroke-opacity="1" stroke-miterlimit="4"/><g clip-path="url(#b55049ff59)"><path fill="#ff9b69" d="M 336.09375 124.105469 C 333.609375 125.859375 330.429688 129.472656 329.992188 136.777344 C 330.101562 139.917969 329.992188 143.058594 329.8125 146.125 C 328.09375 173.152344 322.324219 190.203125 273.390625 196.195312 C 271.234375 196.449219 269.117188 196.59375 267.070312 196.707031 C 214.738281 198.605469 195.238281 148.644531 199.511719 124.324219 C 199.546875 124.25 199.511719 124.179688 199.546875 124.140625 C 196.589844 123.082031 192.828125 122.242188 188.191406 122.242188 C 184.464844 122.242188 180.230469 122.792969 175.480469 124.214844 C 175.480469 124.25 175.480469 124.324219 175.480469 124.363281 C 179.71875 148.609375 160.253906 198.566406 107.847656 196.632812 C 105.804688 196.558594 103.6875 196.375 101.53125 196.121094 C 52.597656 190.167969 46.863281 173.113281 45.109375 146.054688 C 44.890625 142.984375 44.816406 139.84375 44.925781 136.703125 C 44.527344 129.402344 41.3125 125.785156 38.828125 124.03125 C 37.074219 122.792969 36.125 120.671875 36.273438 118.519531 C 36.566406 114.609375 36.894531 110.703125 37.1875 106.796875 C 37.441406 103.765625 39.851562 101.316406 42.882812 101.0625 C 42.917969 101.0625 42.957031 101.0625 42.992188 101.0625 C 60.484375 99.601562 77.539062 95.585938 94.921875 94.527344 C 101.679688 94.085938 108.46875 94.015625 115.261719 94.269531 C 125.960938 94.671875 136.625 95.984375 147.070312 98.324219 C 150.066406 99.015625 152.949219 99.929688 155.6875 101.0625 C 155.6875 101.0625 169.53125 103.070312 188.554688 103.070312 C 197.757812 103.070312 208.203125 102.597656 218.832031 101.207031 C 221.640625 100.003906 224.636719 99.054688 227.742188 98.359375 C 238.183594 95.984375 248.847656 94.707031 259.546875 94.304688 C 266.339844 94.050781 273.132812 94.125 279.890625 94.5625 C 297.34375 95.65625 314.398438 99.675781 331.890625 101.136719 C 331.929688 101.136719 331.964844 101.136719 332 101.136719 C 335.03125 101.390625 337.480469 103.800781 337.699219 106.867188 C 337.992188 110.777344 338.320312 114.683594 338.613281 118.589844 C 338.792969 120.746094 337.84375 122.863281 336.09375 124.105469 Z M 336.09375 124.105469 " fill-opacity="1" fill-rule="nonzero"/></g><path fill="#000000" d="M 91.5625 184.835938 C 47.8125 177.53125 57.597656 127.355469 57.597656 127.355469 C 60.082031 172.019531 91.5625 184.835938 91.5625 184.835938 Z M 218.0625 125.53125 C 218.0625 125.53125 208.238281 175.707031 252.027344 183.011719 C 252.027344 183.011719 220.582031 170.191406 218.0625 125.53125 Z M 218.0625 125.53125 " fill-opacity="1" fill-rule="nonzero"/></svg>